<mxfile host="Electron" modified="2024-05-14T04:36:23.190Z" agent="Mozilla/5.0 (Macintosh; Intel Mac OS X 10_15_7) AppleWebKit/537.36 (KHTML, like Gecko) draw.io/24.4.0 Chrome/120.0.6099.109 Electron/28.1.0 Safari/537.36" etag="3-Ph0PuEWxJoBAUEFru1" version="24.4.0" type="device">
  <diagram name="Page-1" id="QlXgKViQLXsBEA7qz12N">
    <mxGraphModel dx="954" dy="621" grid="1" gridSize="10" guides="1" tooltips="1" connect="1" arrows="1" fold="1" page="1" pageScale="1" pageWidth="850" pageHeight="1100" math="0" shadow="0">
      <root>
        <mxCell id="0" />
        <mxCell id="1" parent="0" />
        <mxCell id="LZNLfZ1Q3SWilyGmxnhc-9" style="edgeStyle=orthogonalEdgeStyle;rounded=0;orthogonalLoop=1;jettySize=auto;html=1;entryX=0;entryY=0.5;entryDx=0;entryDy=0;" edge="1" parent="1" source="LZNLfZ1Q3SWilyGmxnhc-1" target="LZNLfZ1Q3SWilyGmxnhc-4">
          <mxGeometry relative="1" as="geometry" />
        </mxCell>
        <mxCell id="LZNLfZ1Q3SWilyGmxnhc-10" style="edgeStyle=orthogonalEdgeStyle;rounded=0;orthogonalLoop=1;jettySize=auto;html=1;exitX=1;exitY=0.5;exitDx=0;exitDy=0;entryX=0;entryY=0.5;entryDx=0;entryDy=0;" edge="1" parent="1" source="LZNLfZ1Q3SWilyGmxnhc-1" target="LZNLfZ1Q3SWilyGmxnhc-5">
          <mxGeometry relative="1" as="geometry" />
        </mxCell>
        <mxCell id="LZNLfZ1Q3SWilyGmxnhc-1" value="&lt;b&gt;&lt;font style=&quot;background-color: rgb(169, 196, 235); font-size: 12px;&quot;&gt;API-Gateway&lt;/font&gt;&lt;/b&gt;" style="rounded=1;whiteSpace=wrap;html=1;strokeWidth=2;fillWeight=4;hachureGap=8;hachureAngle=45;fillColor=#1ba1e2;sketch=1;" vertex="1" parent="1">
          <mxGeometry x="200" y="290" width="120" height="60" as="geometry" />
        </mxCell>
        <mxCell id="LZNLfZ1Q3SWilyGmxnhc-3" style="edgeStyle=orthogonalEdgeStyle;rounded=0;orthogonalLoop=1;jettySize=auto;html=1;exitX=1;exitY=0.5;exitDx=0;exitDy=0;entryX=0;entryY=0.5;entryDx=0;entryDy=0;" edge="1" parent="1" source="LZNLfZ1Q3SWilyGmxnhc-2" target="LZNLfZ1Q3SWilyGmxnhc-1">
          <mxGeometry relative="1" as="geometry" />
        </mxCell>
        <mxCell id="LZNLfZ1Q3SWilyGmxnhc-2" value="&lt;font size=&quot;1&quot; style=&quot;&quot; face=&quot;Comic Sans MS&quot;&gt;&lt;b style=&quot;background-color: rgb(213, 232, 212); font-size: 12px;&quot;&gt;User&lt;/b&gt;&lt;/font&gt;" style="rhombus;whiteSpace=wrap;html=1;strokeWidth=2;fillWeight=-1;hachureGap=8;fillStyle=cross-hatch;fillColor=#006600;sketch=1;" vertex="1" parent="1">
          <mxGeometry x="10" y="290" width="120" height="60" as="geometry" />
        </mxCell>
        <mxCell id="LZNLfZ1Q3SWilyGmxnhc-11" style="edgeStyle=orthogonalEdgeStyle;rounded=0;orthogonalLoop=1;jettySize=auto;html=1;exitX=1;exitY=0.5;exitDx=0;exitDy=0;entryX=0;entryY=0.5;entryDx=0;entryDy=0;" edge="1" parent="1" source="LZNLfZ1Q3SWilyGmxnhc-4" target="LZNLfZ1Q3SWilyGmxnhc-6">
          <mxGeometry relative="1" as="geometry" />
        </mxCell>
        <mxCell id="LZNLfZ1Q3SWilyGmxnhc-4" value="&lt;b style=&quot;background-color: rgb(255, 153, 153);&quot;&gt;Cart-Service&lt;/b&gt;" style="ellipse;whiteSpace=wrap;html=1;strokeWidth=2;fillWeight=2;hachureGap=8;fillColor=#990000;fillStyle=dots;sketch=1;" vertex="1" parent="1">
          <mxGeometry x="380" y="220" width="120" height="60" as="geometry" />
        </mxCell>
        <mxCell id="LZNLfZ1Q3SWilyGmxnhc-12" style="edgeStyle=orthogonalEdgeStyle;rounded=0;orthogonalLoop=1;jettySize=auto;html=1;exitX=0.5;exitY=1;exitDx=0;exitDy=0;entryX=0.5;entryY=0;entryDx=0;entryDy=0;" edge="1" parent="1" source="LZNLfZ1Q3SWilyGmxnhc-5" target="LZNLfZ1Q3SWilyGmxnhc-7">
          <mxGeometry relative="1" as="geometry" />
        </mxCell>
        <mxCell id="LZNLfZ1Q3SWilyGmxnhc-5" value="&lt;b style=&quot;background-color: rgb(255, 153, 153);&quot;&gt;Product-Service&lt;/b&gt;" style="ellipse;whiteSpace=wrap;html=1;strokeWidth=2;fillWeight=2;hachureGap=8;fillColor=#990000;fillStyle=dots;sketch=1;" vertex="1" parent="1">
          <mxGeometry x="380" y="360" width="120" height="60" as="geometry" />
        </mxCell>
        <mxCell id="LZNLfZ1Q3SWilyGmxnhc-6" value="&lt;b&gt;&lt;font style=&quot;font-size: 12px; background-color: rgb(255, 153, 153);&quot;&gt;Counter-Service&lt;/font&gt;&lt;/b&gt;" style="ellipse;whiteSpace=wrap;html=1;strokeWidth=2;fillWeight=2;hachureGap=8;fillColor=#990000;fillStyle=dots;sketch=1;" vertex="1" parent="1">
          <mxGeometry x="560" y="220" width="120" height="60" as="geometry" />
        </mxCell>
        <mxCell id="LZNLfZ1Q3SWilyGmxnhc-7" value="" style="shape=ext;double=1;whiteSpace=wrap;html=1;aspect=fixed;" vertex="1" parent="1">
          <mxGeometry x="370" y="440" width="150" height="150" as="geometry" />
        </mxCell>
        <mxCell id="LZNLfZ1Q3SWilyGmxnhc-16" style="edgeStyle=orthogonalEdgeStyle;rounded=0;orthogonalLoop=1;jettySize=auto;html=1;exitX=0.5;exitY=1;exitDx=0;exitDy=0;" edge="1" parent="1" source="LZNLfZ1Q3SWilyGmxnhc-13" target="LZNLfZ1Q3SWilyGmxnhc-7">
          <mxGeometry relative="1" as="geometry" />
        </mxCell>
        <mxCell id="LZNLfZ1Q3SWilyGmxnhc-13" value="Controller" style="ellipse;whiteSpace=wrap;html=1;" vertex="1" parent="1">
          <mxGeometry x="410" y="450" width="70" height="30" as="geometry" />
        </mxCell>
        <mxCell id="LZNLfZ1Q3SWilyGmxnhc-17" style="edgeStyle=orthogonalEdgeStyle;rounded=0;orthogonalLoop=1;jettySize=auto;html=1;exitX=0.5;exitY=1;exitDx=0;exitDy=0;entryX=0.5;entryY=0;entryDx=0;entryDy=0;" edge="1" parent="1" source="LZNLfZ1Q3SWilyGmxnhc-14" target="LZNLfZ1Q3SWilyGmxnhc-15">
          <mxGeometry relative="1" as="geometry" />
        </mxCell>
        <mxCell id="LZNLfZ1Q3SWilyGmxnhc-14" value="Service" style="ellipse;whiteSpace=wrap;html=1;" vertex="1" parent="1">
          <mxGeometry x="410" y="500" width="70" height="30" as="geometry" />
        </mxCell>
        <mxCell id="LZNLfZ1Q3SWilyGmxnhc-15" value="&amp;nbsp;Repository" style="ellipse;whiteSpace=wrap;html=1;" vertex="1" parent="1">
          <mxGeometry x="410" y="550" width="70" height="30" as="geometry" />
        </mxCell>
        <mxCell id="LZNLfZ1Q3SWilyGmxnhc-19" style="edgeStyle=orthogonalEdgeStyle;rounded=0;orthogonalLoop=1;jettySize=auto;html=1;exitX=0.5;exitY=1;exitDx=0;exitDy=0;entryX=0.5;entryY=0;entryDx=0;entryDy=0;" edge="1" parent="1" source="LZNLfZ1Q3SWilyGmxnhc-18" target="LZNLfZ1Q3SWilyGmxnhc-1">
          <mxGeometry relative="1" as="geometry">
            <Array as="points">
              <mxPoint x="260" y="120" />
            </Array>
          </mxGeometry>
        </mxCell>
        <mxCell id="LZNLfZ1Q3SWilyGmxnhc-20" style="edgeStyle=orthogonalEdgeStyle;rounded=0;orthogonalLoop=1;jettySize=auto;html=1;exitX=0.5;exitY=1;exitDx=0;exitDy=0;entryX=0.5;entryY=0;entryDx=0;entryDy=0;" edge="1" parent="1" source="LZNLfZ1Q3SWilyGmxnhc-18" target="LZNLfZ1Q3SWilyGmxnhc-4">
          <mxGeometry relative="1" as="geometry" />
        </mxCell>
        <mxCell id="LZNLfZ1Q3SWilyGmxnhc-21" style="edgeStyle=orthogonalEdgeStyle;rounded=0;orthogonalLoop=1;jettySize=auto;html=1;exitX=0.5;exitY=1;exitDx=0;exitDy=0;entryX=0.5;entryY=0;entryDx=0;entryDy=0;" edge="1" parent="1" source="LZNLfZ1Q3SWilyGmxnhc-18" target="LZNLfZ1Q3SWilyGmxnhc-6">
          <mxGeometry relative="1" as="geometry" />
        </mxCell>
        <mxCell id="LZNLfZ1Q3SWilyGmxnhc-22" style="edgeStyle=orthogonalEdgeStyle;rounded=0;orthogonalLoop=1;jettySize=auto;html=1;exitX=1;exitY=0.5;exitDx=0;exitDy=0;entryX=1;entryY=0.5;entryDx=0;entryDy=0;" edge="1" parent="1" source="LZNLfZ1Q3SWilyGmxnhc-18" target="LZNLfZ1Q3SWilyGmxnhc-5">
          <mxGeometry relative="1" as="geometry">
            <mxPoint x="730" y="490" as="targetPoint" />
            <Array as="points">
              <mxPoint x="731" y="90" />
              <mxPoint x="731" y="390" />
            </Array>
          </mxGeometry>
        </mxCell>
        <mxCell id="LZNLfZ1Q3SWilyGmxnhc-18" value="&lt;b style=&quot;background-color: rgb(169, 196, 235);&quot;&gt;Discovery-Service&lt;/b&gt;" style="rounded=1;whiteSpace=wrap;html=1;strokeWidth=2;fillWeight=4;hachureGap=8;hachureAngle=45;fillColor=#1ba1e2;sketch=1;" vertex="1" parent="1">
          <mxGeometry x="290" y="60" width="120" height="60" as="geometry" />
        </mxCell>
      </root>
    </mxGraphModel>
  </diagram>
</mxfile>
